<?xml version="1.0" standalone="no"?><!DOCTYPE svg PUBLIC "-//W3C//DTD SVG 1.1//EN" "http://www.w3.org/Graphics/SVG/1.1/DTD/svg11.dtd"><svg t="1515662722975" class="icon" style="" viewBox="0 0 1024 1024" version="1.1" xmlns="http://www.w3.org/2000/svg" p-id="991" xmlns:xlink="http://www.w3.org/1999/xlink" width="200" height="200"><defs><style type="text/css"></style></defs><path d="M920.422353 705.200596c-94.192835-60.406275-108.526527-68.801723-141.698786-63.47778-33.138131 5.323943-43.001077 12.559045-90.677668 80.780594-6.757312 8.395448-70.74701 109.209084-300.427365-115.386223-168.386756-176.782205-118.525984-240.942542-86.68471-282.476121 27.711805-26.346692 58.802266-38.018412 63.409524-85.080702 1.979415-21.671178-0.78494-66.105624-70.678754-163.642987C246.807072 6.262458 237.490172 0.699621 206.229071 0.051192c-31.295228-0.648429-81.121873 15.118633-132.347758 57.16413C23.201472 91.855078 7.570922 132.501334 2.144596 180.075541c-5.733477 60.064996-16.961536 263.193892 235.925749 546.898616 252.887285 283.704724 579.797853 344.691171 693.68245 264.217728 49.075832-35.492952 89.176043-114.32826 90.916563-165.042228 6.143011-34.981035-8.05417-60.576914-102.281133-120.949061z" p-id="992"></path></svg>