<?xml version="1.0" standalone="no"?><!DOCTYPE svg PUBLIC "-//W3C//DTD SVG 1.1//EN"
        "http://www.w3.org/Graphics/SVG/1.1/DTD/svg11.dtd">
<svg t="1515504974248" class="icon" style="" viewBox="0 0 1188 1024" version="1.1" xmlns="http://www.w3.org/2000/svg"
     p-id="1883" xmlns:xlink="http://www.w3.org/1999/xlink" width="232.03125" height="200">
    <defs>
        <style type="text/css"></style>
    </defs>
    <path d="M463.617656 957.557707C267.011559 966.773618 108.088298 868.183852 108.088298 736.990242 108.088298 605.591834 267.011559 500.243734 463.617656 491.191661 660.387591 482.098629 819.63853 563.198644 819.63853 694.228416 819.63853 825.422026 660.387591 948.587554 463.617656 957.557707M882.306723 531.250153C835.612775 522.198081 858.263436 497.089844 858.263436 497.089844 858.263436 497.089844 904.015313 421.724174 849.252323 367.002143 781.42322 299.13208 616.519856 375.60366 616.519856 375.60366 553.605905 395.182351 570.276464 366.715426 579.205657 318.301175 579.205657 261.244447 559.626967 164.661702 391.89739 221.71843 224.372612 279.061875 80.481525 479.92777 80.481525 479.92777-11.636623 602.92946-40.963699 778.605199 80.358646 893.128251 196.72488 1002.940948 380.060065 1031.039236 534.150093 1022.601557 679.679565 1014.614435 843.845656 965.626749 945.056836 855.199658 965.24992 833.163391 982.657752 808.46475 995.396189 781.349493 1076.455244 608.868602 929.16451 540.629903 882.306723 531.250153"
          p-id="1884" fill="#000000"></path>
    <path d="M491.109742 738.403348C478.576103 747.742138 463.216252 746.390471 456.621756 735.208499 449.699583 724.272285 452.280038 706.741575 464.936555 697.525664 479.600093 686.671369 494.837066 689.784299 501.431562 700.720513 508.067018 711.902485 503.315704 728.736882 491.109742 738.403348M374.53871 837.689427C337.634108 841.990186 307.856476 820.732151 307.856476 789.807651 307.856476 759.087948 334.31638 726.85274 371.220983 723.002537 413.614172 718.988496 441.261905 743.40042 441.261905 774.283961 441.261905 805.044623 411.320434 833.470588 374.53871 837.689427M424.386548 577.677864C326.779813 589.105593 255.919699 654.190403 249.202324 753.476482 247.195303 783.336033 251.6599 816.144676 268.248539 842.235943 309.085264 906.419642 397.31225 912.932219 464.936555 899.497469 535.75571 885.407365 607.107339 835.190891 621.934716 760.849211 627.996737 730.580064 623.450221 699.327887 611.858653 670.901922 580.852233 594.839938 501.144845 568.78963 424.386548 577.677864"
          p-id="1885"></path>
    <path d="M1168.520145 427.462614C1169.462216 423.817209 1170.03565 420.048926 1170.07661 416.075844 1172.738984 398.586094 1174.377368 380.850585 1174.377368 363.115077 1174.377368 167.942566 1015.617945 9.142184 820.445434 9.142184 793.412096 9.142184 771.539667 31.096531 771.539667 58.08891 771.539667 85.122248 793.412096 107.035636 820.445434 107.035636 961.674147 107.035636 1076.524875 221.927324 1076.524875 363.115077 1076.524875 378.843565 1075.091289 394.613012 1072.224117 409.931904L1072.797551 410.054783C1072.633713 411.897965 1072.265076 413.700187 1072.265076 415.625289 1072.265076 442.617667 1094.178464 464.531055 1121.211803 464.531055 1144.026302 464.531055 1162.990598 448.884487 1168.438226 427.790291L1168.479185 427.790291C1168.479185 427.667412 1168.479185 427.544533 1168.520145 427.462614"
          p-id="1886"></path>
    <path d="M1015.310748 381.489555C1015.884182 375.386574 1016.498576 369.365513 1016.498576 363.098693 1016.498576 255.0063 928.558308 167.066031 820.465914 167.066031 797.938132 167.066031 779.670149 185.334014 779.670149 207.861796 779.670149 230.389578 797.938132 248.657561 820.465914 248.657561 883.584663 248.657561 934.948006 299.979944 934.948006 363.098693 934.948006 368.095765 934.620329 373.010917 934.005935 377.84415L934.948006 377.967029C934.784167 379.564454 934.005935 380.99804 934.005935 382.718343 934.005935 405.246125 952.273918 423.473149 974.8017 423.473149 995.40438 423.473149 1011.706303 407.949459 1014.491556 388.084051L1014.901152 388.165971C1015.024031 387.14198 1014.942111 386.036071 1015.10595 385.012081 1015.10595 384.233849 1015.556505 383.537535 1015.556505 382.718343 1015.556505 382.267788 1015.310748 381.899151 1015.310748 381.489555"
          p-id="1887"></path>
</svg>