<?xml version="1.0" standalone="no"?><!DOCTYPE svg PUBLIC "-//W3C//DTD SVG 1.1//EN"
        "http://www.w3.org/Graphics/SVG/1.1/DTD/svg11.dtd">
<svg t="1515567171968" class="icon" style="" viewBox="0 0 1024 1024" version="1.1" xmlns="http://www.w3.org/2000/svg"
     p-id="3039" xmlns:xlink="http://www.w3.org/1999/xlink" width="200" height="200">
    <defs>
        <style type="text/css"></style>
    </defs>
    <path d="M830.1 277.4c0-45.7-45.4-45.7-45.4-45.7L239 231.8s-45.5 0-45.5 45.7v45.7h636.6v-45.8z m-136.4-137H329.9s-45.4 0-45.4 45.7h454.7c0-45.7-45.6-45.7-45.5-45.7zM921 323.2l-26.9-27V368.8H129.5v-72.7l-26.9 27c-26.9 27.1-46.2 34.3-35.3 91.4 10.7 56.9 63 368.8 70.7 411 8.6 46.3 55.6 45.7 55.6 45.7h636.6s47.1 0.7 55.6-45.7c7.8-42.2 59.9-354.2 70.7-411 10.8-57-8.5-64.3-35.5-91.3zM693.7 569.9s0 45.7-45.5 45.7H375.4c-45.5 0-45.5-45.7-45.5-45.7v-91.4h63.7v73.1h236.3v-73.1h63.8v91.4z"
          p-id="3040" fill="#40C4FF"></path>
</svg>
