<?xml version="1.0" standalone="no"?><!DOCTYPE svg PUBLIC "-//W3C//DTD SVG 1.1//EN"
        "http://www.w3.org/Graphics/SVG/1.1/DTD/svg11.dtd">
<svg t="1515567554407" class="icon" style="" viewBox="0 0 1025 1024" version="1.1" xmlns="http://www.w3.org/2000/svg"
     p-id="5050" xmlns:xlink="http://www.w3.org/1999/xlink" width="200.1953125" height="200">
    <defs>
        <style type="text/css"></style>
    </defs>
    <path d="M505.157927 0.046886C222.444542 3.826641-3.734822 236.12286 0.046736 518.911985c3.779755 282.588956 236.075974 508.840453 518.791162 505.040862 282.716992-3.781558 508.889143-236.077777 505.114798-518.866902C1020.216221 222.446496 787.876723-3.732868 505.157927 0.046886L505.157927 0.046886 505.157927 0.046886zM561.917363 170.684054c52.027529 0 67.386389 30.160495 67.386389 64.708462 0 43.151598-34.567804 83.03919-93.496631 83.03919-49.300912 0-72.754867-24.819066-71.362706-65.781436C464.469662 218.107713 493.407507 170.684054 561.917363 170.684054L561.917363 170.684054zM428.459204 832.004066c-35.570449 0-61.612165-21.601947-36.742605-116.53943l40.789251-168.294658c7.069007-26.993868 8.241164-37.790333 0-37.790333-10.63056 0-56.829765 18.649915-84.135607 37.00589l-17.75006-29.110963c86.55025-72.235511 186.046521-114.636929 228.685976-114.636929 35.547006 0 41.447462 42.084034 23.699206 106.785282l-46.736594 176.981241c-8.241164 31.280355-4.681414 42.07682 3.55975 42.07682 10.63056 0 45.640177-12.920774 80.018632-39.959725l20.08716 26.993868C555.845591 799.600244 464.078342 832.004066 428.459204 832.004066L428.459204 832.004066 428.459204 832.004066zM428.459204 832.004066"
          p-id="5051" fill="#FF5252"></path>
</svg>