<?xml version="1.0" standalone="no"?><!DOCTYPE svg PUBLIC "-//W3C//DTD SVG 1.1//EN"
        "http://www.w3.org/Graphics/SVG/1.1/DTD/svg11.dtd">
<svg t="1515567198072" class="icon" style="" viewBox="0 0 1024 1024" version="1.1" xmlns="http://www.w3.org/2000/svg"
     p-id="3709" xmlns:xlink="http://www.w3.org/1999/xlink" width="200" height="200">
    <defs>
        <style type="text/css"></style>
    </defs>
    <path d="M771.584 903.404308c0 0 7.876923 29.262769-4.489846 34.894769s-115.869538 71.995077-115.869538 71.995077-76.760615 35.485538-163.131077-7.876923c-100.745846-50.569846-218.466462-189.715692-302.670769-329.649231-78.139077-129.851077-156.908308-278.291692-163.131077-381.361231-6.222769-103.187692 60.179692-160.886154 84.401231-176.64C155.017846 83.259077 196.647385 55.138462 196.647385 55.138462s16.896-7.876923 27.017846 6.734769c10.121846 14.611692 166.518154 256.512 166.518154 256.512s10.121846 15.753846 0 23.630769c-10.121846 7.876923-79.872 54.035692-79.872 54.035692s-50.648615 25.875692 41.629538 163.131077c92.238769 137.255385 139.500308 147.377231 156.396308 135.010462 16.856615-12.366769 65.260308-41.629538 65.260308-41.629538s22.488615-22.488615 37.100308 5.632S771.584 903.404308 771.584 903.404308zM573.755077 208.856615c-19.495385-6.340923-40.448 4.332308-46.788923 23.827692s4.371692 40.408615 23.827692 46.749538c0.827077 0.275692 83.574154 28.435692 130.126769 91.411692 51.593846 69.710769 30.916923 157.853538 30.759385 158.562462-5.041231 19.849846 7.010462 40.054154 26.899692 45.056 3.032615 0.787692 6.104615 1.142154 9.097846 1.142154 16.580923 0 31.704615-11.224615 35.958154-28.002462 1.220923-4.923077 29.814154-122.368-43.047385-220.868923C679.384615 243.790769 578.048 210.235077 573.755077 208.856615zM923.411692 214.921846c-126.542769-190.188308-308.578462-213.740308-316.258462-214.646154C586.830769-2.126769 568.398769 12.406154 565.956923 32.768s12.169846 38.793846 32.492308 41.196308c1.536 0.196923 155.411692 20.125538 263.168 182.035692 94.916923 142.690462 59.667692 319.645538 59.273846 321.339077-4.214154 20.046769 8.585846 39.739077 28.672 43.992615 2.56 0.551385 5.159385 0.827077 7.68 0.827077 17.211077 0 32.610462-12.012308 36.312615-29.459692C995.288615 584.270769 1035.972923 384.078769 923.411692 214.921846z"
          p-id="3710" fill="#FFAB40"></path>
</svg>